<svg xmlns="http://www.w3.org/2000/svg" height="48" viewBox="0 -960 960 960" width="48"><path d="M182-85q-22.969 0-40.234-17.266Q124.5-119.531 124.5-142.5v-616q0-22.969 17.266-40.234Q159.031-816 182-816h67.5v-60H312v60h336v-60h62.5v60H778q22.969 0 40.234 17.266Q835.5-781.469 835.5-758.5v616q0 22.969-17.266 40.234Q800.969-85 778-85H182Zm0-57.5h596V-569H182v426.5Zm0-484h596v-132H182v132Zm0 0v-132 132Zm298.053 226q-16.765 0-28.159-11.341-11.394-11.341-11.394-28.106t11.341-28.159q11.341-11.394 28.106-11.394t28.159 11.341q11.394 11.341 11.394 28.106t-11.341 28.159Q496.818-400.5 480.053-400.5Zm-160 0q-16.765 0-28.159-11.341-11.394-11.341-11.394-28.106t11.341-28.159q11.341-11.394 28.106-11.394t28.159 11.341q11.394 11.341 11.394 28.106t-11.341 28.159Q336.818-400.5 320.053-400.5Zm320 0q-16.766 0-28.159-11.341-11.394-11.341-11.394-28.106t11.341-28.159q11.341-11.394 28.106-11.394 16.766 0 28.159 11.341 11.394 11.341 11.394 28.106t-11.341 28.159Q656.818-400.5 640.053-400.5Zm-160 160q-16.765 0-28.159-11.341-11.394-11.341-11.394-28.106t11.341-28.159q11.341-11.394 28.106-11.394t28.159 11.341q11.394 11.341 11.394 28.106t-11.341 28.159Q496.818-240.5 480.053-240.5Zm-160 0q-16.765 0-28.159-11.341-11.394-11.341-11.394-28.106t11.341-28.159q11.341-11.394 28.106-11.394t28.159 11.341q11.394 11.341 11.394 28.106t-11.341 28.159Q336.818-240.5 320.053-240.5Zm320 0q-16.766 0-28.159-11.341-11.394-11.341-11.394-28.106t11.341-28.159q11.341-11.394 28.106-11.394 16.766 0 28.159 11.341 11.394 11.341 11.394 28.106t-11.341 28.159Q656.818-240.5 640.053-240.5Z"/></svg>