<svg xmlns="http://www.w3.org/2000/svg" height="48" viewBox="0 -960 960 960" width="48"><path d="M480.173-491.5q28.327 0 48.577-20.173 20.25-20.172 20.25-48.5 0-28.327-20.277-48.577Q508.447-629 479.973-629q-28.473 0-48.473 20.277-20 20.276-20 48.75 0 28.473 20.173 48.473 20.172 20 48.5 20Zm-.173 331Q611.5-281 674.5-379t63-172.5q0-116.79-74.365-191.395T479.927-817.5q-108.844 0-183.135 74.605Q222.5-668.29 222.5-551.5q0 74.5 64.5 172.5t193 218.5Zm0 75.5Q321-221 243-336.679t-78-214.634q0-148.028 95-235.857Q355-875 480-875t220 87.856q95 87.857 95 235.929 0 98.715-78 214.465T480-85Zm0-475Z"/></svg>